<svg xmlns="http://www.w3.org/2000/svg" width="29" height="28" viewBox="0 0 29 28" fill="none">
    <g clip-path="url(#clip0_1_45)">
        <path d="M8.97666 18.3485C9.21455 18.6205 9.53757 18.8049 9.87466 18.8612C10.2118 18.9176 10.5353 18.8412 10.7742 18.649L17.9065 12.9089L17.897 17.5056C17.908 17.828 18.0463 18.1547 18.2828 18.417C18.5193 18.6793 18.8355 18.8567 19.1648 18.9117C19.4942 18.9668 19.8109 18.8952 20.0483 18.7122C20.2857 18.5291 20.4252 18.2488 20.4375 17.9303L20.4531 10.3469C20.4536 10.019 20.3203 9.68217 20.0826 9.41048C19.845 9.1388 19.5223 8.95445 19.1854 8.89794L11.3963 7.59586C11.2257 7.56148 11.0556 7.5607 10.8961 7.59357C10.7366 7.62644 10.591 7.69228 10.468 7.78716C10.3449 7.88205 10.247 8.00403 10.18 8.14584C10.1129 8.28765 10.0782 8.44638 10.0779 8.61255C10.0775 8.77873 10.1116 8.94895 10.178 9.11307C10.2444 9.27718 10.3417 9.43182 10.4643 9.56776C10.5869 9.7037 10.7321 9.81816 10.8914 9.90431C11.0506 9.99046 11.2206 10.0465 11.3912 10.0692L16.1126 10.8585L8.98026 16.5985C8.48316 16.9986 8.48155 17.7826 8.97666 18.3485Z" fill="white"/>
    </g>
    <defs>
        <clipPath id="clip0_1_45">
            <rect width="21.7955" height="18.4955" fill="white" transform="matrix(0.658447 0.752627 -0.779043 0.626971 14.4088 0)"/>
        </clipPath>
    </defs>
</svg>
