<svg xmlns="http://www.w3.org/2000/svg" width="15" height="16" viewBox="0 0 15 16" fill="none">
  <g clip-path="url(#clip0_8_9)">
    <path d="M13.4375 2.66669H12.0833V3.55558H13.3333V13.3334H1.66666V3.55558H2.91666V2.66669H1.5625C1.46509 2.66842 1.36897 2.69061 1.27961 2.73198C1.19024 2.77335 1.1094 2.83309 1.04169 2.90779C0.973975 2.9825 0.920723 3.0707 0.884973 3.16735C0.849222 3.26401 0.831673 3.36724 0.833329 3.47113V13.4178C0.831673 13.5217 0.849222 13.6249 0.884973 13.7216C0.920723 13.8182 0.973975 13.9064 1.04169 13.9811C1.1094 14.0558 1.19024 14.1156 1.27961 14.157C1.36897 14.1983 1.46509 14.2205 1.5625 14.2222H13.4375C13.5349 14.2205 13.631 14.1983 13.7204 14.157C13.8097 14.1156 13.8906 14.0558 13.9583 13.9811C14.026 13.9064 14.0793 13.8182 14.115 13.7216C14.1508 13.6249 14.1683 13.5217 14.1667 13.4178V3.47113C14.1683 3.36724 14.1508 3.26401 14.115 3.16735C14.0793 3.0707 14.026 2.9825 13.9583 2.90779C13.8906 2.83309 13.8097 2.77335 13.7204 2.73198C13.631 2.69061 13.5349 2.66842 13.4375 2.66669Z" fill="#7F7F7F"/>
    <path d="M3.33333 6.22223H4.16666V7.11112H3.33333V6.22223Z" fill="#7F7F7F"/>
    <path d="M5.83333 6.22223H6.66666V7.11112H5.83333V6.22223Z" fill="#7F7F7F"/>
    <path d="M8.33333 6.22223H9.16666V7.11112H8.33333V6.22223Z" fill="#7F7F7F"/>
    <path d="M10.8333 6.22223H11.6667V7.11112H10.8333V6.22223Z" fill="#7F7F7F"/>
    <path d="M3.33333 8.44446H4.16666V9.33335H3.33333V8.44446Z" fill="#7F7F7F"/>
    <path d="M5.83333 8.44446H6.66666V9.33335H5.83333V8.44446Z" fill="#7F7F7F"/>
    <path d="M8.33333 8.44446H9.16666V9.33335H8.33333V8.44446Z" fill="#7F7F7F"/>
    <path d="M10.8333 8.44446H11.6667V9.33335H10.8333V8.44446Z" fill="#7F7F7F"/>
    <path d="M3.33333 10.6667H4.16666V11.5556H3.33333V10.6667Z" fill="#7F7F7F"/>
    <path d="M5.83333 10.6667H6.66666V11.5556H5.83333V10.6667Z" fill="#7F7F7F"/>
    <path d="M8.33333 10.6667H9.16666V11.5556H8.33333V10.6667Z" fill="#7F7F7F"/>
    <path d="M10.8333 10.6667H11.6667V11.5556H10.8333V10.6667Z" fill="#7F7F7F"/>
    <path d="M4.16667 4.44447C4.27717 4.44447 4.38315 4.39765 4.46129 4.3143C4.53943 4.23095 4.58333 4.1179 4.58333 4.00003V1.33336C4.58333 1.21549 4.53943 1.10244 4.46129 1.01909C4.38315 0.935741 4.27717 0.888916 4.16667 0.888916C4.05616 0.888916 3.95018 0.935741 3.87204 1.01909C3.7939 1.10244 3.75 1.21549 3.75 1.33336V4.00003C3.75 4.1179 3.7939 4.23095 3.87204 4.3143C3.95018 4.39765 4.05616 4.44447 4.16667 4.44447Z" fill="#7F7F7F"/>
    <path d="M10.8333 4.44447C10.9438 4.44447 11.0498 4.39765 11.128 4.3143C11.2061 4.23095 11.25 4.1179 11.25 4.00003V1.33336C11.25 1.21549 11.2061 1.10244 11.128 1.01909C11.0498 0.935741 10.9438 0.888916 10.8333 0.888916C10.7228 0.888916 10.6169 0.935741 10.5387 1.01909C10.4606 1.10244 10.4167 1.21549 10.4167 1.33336V4.00003C10.4167 4.1179 10.4606 4.23095 10.5387 4.3143C10.6169 4.39765 10.7228 4.44447 10.8333 4.44447Z" fill="#7F7F7F"/>
    <path d="M5.41667 2.66669H9.58334V3.55558H5.41667V2.66669Z" fill="#7F7F7F"/>
  </g>
  <defs>
    <clipPath id="clip0_8_9">
      <rect width="15" height="16" fill="white"/>
    </clipPath>
  </defs>
</svg>
