<svg xmlns="http://www.w3.org/2000/svg" width="17" height="17" viewBox="0 0 17 17" fill="none">
    <path d="M5.50618 14.13C6.42764 14.6208 7.45597 14.8767 8.5 14.8749C12.0208 14.8749 14.875 12.0208 14.875 8.49995C14.875 4.97913 12.0208 2.12495 8.5 2.12495C4.97918 2.12495 2.125 4.97913 2.125 8.49995C2.125 9.5837 2.39518 10.6031 2.87118 11.4956C2.98224 11.7035 3.00835 11.9464 2.94404 12.1732L2.19482 14.8063L4.82861 14.0577C5.05531 13.9932 5.29818 14.0191 5.50618 14.13ZM8.5 15.7857C7.30643 15.7874 6.13088 15.4946 5.07754 14.9332L2.18147 15.7571C2.05146 15.7941 1.91395 15.7956 1.78315 15.7616C1.65235 15.7276 1.533 15.6593 1.43744 15.5637C1.34187 15.4682 1.27356 15.3488 1.23956 15.218C1.20556 15.0872 1.20711 14.9497 1.24404 14.8197L2.06732 11.9236C1.50559 10.87 1.21258 9.69398 1.21429 8.49995C1.21429 4.47641 4.47647 1.21423 8.5 1.21423C12.5235 1.21423 15.7857 4.47641 15.7857 8.49995C15.7857 12.5235 12.5235 15.7857 8.5 15.7857ZM5.76786 7.13388C5.76786 7.01311 5.81583 6.89729 5.90123 6.81189C5.98663 6.72649 6.10245 6.67852 6.22322 6.67852H10.7768C10.8976 6.67852 11.0134 6.72649 11.0988 6.81189C11.1842 6.89729 11.2321 7.01311 11.2321 7.13388C11.2321 7.25464 11.1842 7.37047 11.0988 7.45586C11.0134 7.54126 10.8976 7.58923 10.7768 7.58923H6.22322C6.10245 7.58923 5.98663 7.54126 5.90123 7.45586C5.81583 7.37047 5.76786 7.25464 5.76786 7.13388ZM5.76786 9.86602C5.76786 9.74525 5.81583 9.62943 5.90123 9.54403C5.98663 9.45864 6.10245 9.41066 6.22322 9.41066H8.95536C9.07613 9.41066 9.19195 9.45864 9.27734 9.54403C9.36274 9.62943 9.41072 9.74525 9.41072 9.86602C9.41072 9.98679 9.36274 10.1026 9.27734 10.188C9.19195 10.2734 9.07613 10.3214 8.95536 10.3214H6.22322C6.10245 10.3214 5.98663 10.2734 5.90123 10.188C5.81583 10.1026 5.76786 9.98679 5.76786 9.86602Z" fill="#7F7F7F"/>
</svg>
