<svg xmlns="http://www.w3.org/2000/svg" width="35" height="35" viewBox="0 0 35 35" fill="none">
    <path d="M13.125 7.29164C12.7382 7.29164 12.3673 7.44528 12.0938 7.71878C11.8203 7.99227 11.6667 8.3632 11.6667 8.74997C11.6667 9.13675 11.8203 9.50768 12.0938 9.78117C12.3673 10.0547 12.7382 10.2083 13.125 10.2083C13.5118 10.2083 13.8827 10.0547 14.1562 9.78117C14.4297 9.50768 14.5833 9.13675 14.5833 8.74997C14.5833 8.3632 14.4297 7.99227 14.1562 7.71878C13.8827 7.44528 13.5118 7.29164 13.125 7.29164ZM8.99792 7.29164C9.29921 6.43774 9.85795 5.69831 10.5971 5.17529C11.3363 4.65227 12.2195 4.3714 13.125 4.3714C14.0305 4.3714 14.9137 4.65227 15.6529 5.17529C16.392 5.69831 16.9508 6.43774 17.2521 7.29164H27.7083C28.0951 7.29164 28.466 7.44528 28.7395 7.71878C29.013 7.99227 29.1667 8.3632 29.1667 8.74997C29.1667 9.13675 29.013 9.50768 28.7395 9.78117C28.466 10.0547 28.0951 10.2083 27.7083 10.2083H17.2521C16.9508 11.0622 16.392 11.8016 15.6529 12.3247C14.9137 12.8477 14.0305 13.1285 13.125 13.1285C12.2195 13.1285 11.3363 12.8477 10.5971 12.3247C9.85795 11.8016 9.29921 11.0622 8.99792 10.2083H7.29167C6.90489 10.2083 6.53396 10.0547 6.26047 9.78117C5.98698 9.50768 5.83333 9.13675 5.83333 8.74997C5.83333 8.3632 5.98698 7.99227 6.26047 7.71878C6.53396 7.44528 6.90489 7.29164 7.29167 7.29164H8.99792ZM21.875 16.0416C21.4882 16.0416 21.1173 16.1953 20.8438 16.4688C20.5703 16.7423 20.4167 17.1132 20.4167 17.5C20.4167 17.8867 20.5703 18.2577 20.8438 18.5312C21.1173 18.8047 21.4882 18.9583 21.875 18.9583C22.2618 18.9583 22.6327 18.8047 22.9062 18.5312C23.1797 18.2577 23.3333 17.8867 23.3333 17.5C23.3333 17.1132 23.1797 16.7423 22.9062 16.4688C22.6327 16.1953 22.2618 16.0416 21.875 16.0416ZM17.7479 16.0416C18.0492 15.1877 18.608 14.4483 19.3471 13.9253C20.0863 13.4023 20.9695 13.1214 21.875 13.1214C22.7805 13.1214 23.6637 13.4023 24.4029 13.9253C25.142 14.4483 25.7008 15.1877 26.0021 16.0416H27.7083C28.0951 16.0416 28.466 16.1953 28.7395 16.4688C29.013 16.7423 29.1667 17.1132 29.1667 17.5C29.1667 17.8867 29.013 18.2577 28.7395 18.5312C28.466 18.8047 28.0951 18.9583 27.7083 18.9583H26.0021C25.7008 19.8122 25.142 20.5516 24.4029 21.0747C23.6637 21.5977 22.7805 21.8785 21.875 21.8785C20.9695 21.8785 20.0863 21.5977 19.3471 21.0747C18.608 20.5516 18.0492 19.8122 17.7479 18.9583H7.29167C6.90489 18.9583 6.53396 18.8047 6.26047 18.5312C5.98698 18.2577 5.83333 17.8867 5.83333 17.5C5.83333 17.1132 5.98698 16.7423 6.26047 16.4688C6.53396 16.1953 6.90489 16.0416 7.29167 16.0416H17.7479ZM13.125 24.7916C12.7382 24.7916 12.3673 24.9453 12.0938 25.2188C11.8203 25.4923 11.6667 25.8632 11.6667 26.25C11.6667 26.6367 11.8203 27.0077 12.0938 27.2812C12.3673 27.5547 12.7382 27.7083 13.125 27.7083C13.5118 27.7083 13.8827 27.5547 14.1562 27.2812C14.4297 27.0077 14.5833 26.6367 14.5833 26.25C14.5833 25.8632 14.4297 25.4923 14.1562 25.2188C13.8827 24.9453 13.5118 24.7916 13.125 24.7916ZM8.99792 24.7916C9.29921 23.9377 9.85795 23.1983 10.5971 22.6753C11.3363 22.1523 12.2195 21.8714 13.125 21.8714C14.0305 21.8714 14.9137 22.1523 15.6529 22.6753C16.392 23.1983 16.9508 23.9377 17.2521 24.7916H27.7083C28.0951 24.7916 28.466 24.9453 28.7395 25.2188C29.013 25.4923 29.1667 25.8632 29.1667 26.25C29.1667 26.6367 29.013 27.0077 28.7395 27.2812C28.466 27.5547 28.0951 27.7083 27.7083 27.7083H17.2521C16.9508 28.5622 16.392 29.3016 15.6529 29.8247C14.9137 30.3477 14.0305 30.6285 13.125 30.6285C12.2195 30.6285 11.3363 30.3477 10.5971 29.8247C9.85795 29.3016 9.29921 28.5622 8.99792 27.7083H7.29167C6.90489 27.7083 6.53396 27.5547 6.26047 27.2812C5.98698 27.0077 5.83333 26.6367 5.83333 26.25C5.83333 25.8632 5.98698 25.4923 6.26047 25.2188C6.53396 24.9453 6.90489 24.7916 7.29167 24.7916H8.99792Z" fill="white"/>
</svg>

