<svg xmlns="http://www.w3.org/2000/svg" width="20" height="20" viewBox="0 0 20 20" fill="none">
    <path d="M16.0917 15.75C16.4584 15.175 16.6667 14.4833 16.6667 13.75C16.6667 11.6667 15 10 12.9167 10C10.8334 10 9.16669 11.6667 9.16669 13.75C9.16669 15.8333 10.8334 17.5 12.9167 17.5C13.6417 17.5 14.325 17.2917 14.9 16.9333L17.5 19.4917L18.6584 18.3333L16.0917 15.75ZM12.9167 15.8333C12.3642 15.8333 11.8342 15.6138 11.4435 15.2231C11.0528 14.8324 10.8334 14.3025 10.8334 13.75C10.8334 13.1975 11.0528 12.6676 11.4435 12.2769C11.8342 11.8862 12.3642 11.6667 12.9167 11.6667C13.4692 11.6667 13.9991 11.8862 14.3898 12.2769C14.7805 12.6676 15 13.1975 15 13.75C15 14.3025 14.7805 14.8324 14.3898 15.2231C13.9991 15.6138 13.4692 15.8333 12.9167 15.8333ZM4.16669 16.6667V10H1.66669L10 2.5L18.3334 10H16.8167C15.8334 8.975 14.45 8.33333 12.9167 8.33333C9.93335 8.33333 7.50002 10.7667 7.50002 13.75C7.50002 14.825 7.81669 15.8333 8.35835 16.6667H4.16669Z" fill="#007EF2"/>
</svg>
