<svg xmlns="http://www.w3.org/2000/svg" width="20" height="20" viewBox="0 0 20 20" fill="none">
    <path d="M14.0312 3.75C14.4863 3.74962 14.9368 3.84008 15.3565 4.01609C15.7761 4.1921 16.1564 4.45011 16.475 4.775C17.1315 5.44149 17.4995 6.33947 17.4995 7.275C17.4995 8.21053 17.1315 9.10851 16.475 9.775L9.99998 16.3313L3.52498 9.775C2.86847 9.10851 2.50047 8.21053 2.50047 7.275C2.50047 6.33947 2.86847 5.44149 3.52498 4.775C3.84379 4.45035 4.22409 4.19247 4.64368 4.01643C5.06326 3.8404 5.51372 3.74973 5.96873 3.74973C6.42375 3.74973 6.8742 3.8404 7.29379 4.01643C7.71337 4.19247 8.09367 4.45035 8.41248 4.775L9.99998 6.4L11.5812 4.7875C11.8989 4.45874 12.2796 4.19741 12.7005 4.01915C13.1215 3.84089 13.5741 3.74935 14.0312 3.75ZM14.0312 2.5C13.4097 2.49947 12.7944 2.62304 12.2213 2.86344C11.6482 3.10384 11.1289 3.45625 10.6937 3.9L9.99998 4.6L9.30623 3.9C8.87057 3.45705 8.3511 3.10526 7.7781 2.86512C7.20509 2.62498 6.59002 2.50131 5.96873 2.50131C5.34744 2.50131 4.73237 2.62498 4.15936 2.86512C3.58636 3.10526 3.06689 3.45705 2.63123 3.9C1.74491 4.80227 1.24829 6.01648 1.24829 7.28125C1.24829 8.54603 1.74491 9.76024 2.63123 10.6625L9.99998 18.125L17.3687 10.6625C18.2551 9.76024 18.7517 8.54603 18.7517 7.28125C18.7517 6.01648 18.2551 4.80227 17.3687 3.9C16.9332 3.45682 16.4138 3.10478 15.8407 2.86441C15.2677 2.62405 14.6526 2.50017 14.0312 2.5Z" fill="#7F7F7F"/>
</svg>
