<svg xmlns="http://www.w3.org/2000/svg" width="22" height="20" viewBox="0 0 22 20" fill="none">
    <g clip-path="url(#clip0_5_1479)">
        <path d="M19.1501 1.67169L19.2472 1.66669L19.3664 1.67335L19.4489 1.68669L19.5616 1.71585L19.6597 1.75419L19.7514 1.80169L19.8339 1.85752L19.9091 1.92002L19.9567 1.96919L20.0319 2.06585L20.0796 2.14585C20.1226 2.22919 20.1501 2.31752 20.1621 2.40919L20.1666 2.49752C20.1666 2.56002 20.1593 2.62169 20.1446 2.68085L20.1126 2.78335L14.1249 17.8475C14.0114 18.0722 13.8294 18.2625 13.6004 18.3959C13.3715 18.5292 13.1052 18.6001 12.8333 18.6C12.5884 18.6007 12.3475 18.5438 12.134 18.4347C11.9205 18.3256 11.7417 18.1681 11.6151 17.9775L11.5555 17.8717L8.48281 12.2867L2.36864 9.50669C2.14241 9.41263 1.94731 9.26621 1.80285 9.0821C1.6584 8.89798 1.56964 8.68261 1.54548 8.45752L1.53998 8.33335C1.53998 7.86669 1.81589 7.44002 2.31089 7.19169L2.43923 7.13335L18.9548 1.71169L19.052 1.68669L19.1501 1.67169Z" fill="white"/>
    </g>
    <defs>
        <clipPath id="clip0_5_1479">
            <rect width="22" height="20" fill="white"/>
        </clipPath>
    </defs>
</svg>

