<svg xmlns="http://www.w3.org/2000/svg" width="19" height="19" viewBox="0 0 19 19" fill="none">
    <path d="M16.625 15.0416V15.8333H2.375V15.0416L3.95833 13.4583V8.70831C3.95833 6.25415 5.56542 4.0929 7.91667 3.39623V3.16665C7.91667 2.74672 8.08348 2.34399 8.38041 2.04706C8.67735 1.75013 9.08007 1.58331 9.5 1.58331C9.91993 1.58331 10.3227 1.75013 10.6196 2.04706C10.9165 2.34399 11.0833 2.74672 11.0833 3.16665V3.39623C13.4346 4.0929 15.0417 6.25415 15.0417 8.70831V13.4583L16.625 15.0416ZM11.0833 16.625C11.0833 17.0449 10.9165 17.4476 10.6196 17.7446C10.3227 18.0415 9.91993 18.2083 9.5 18.2083C9.08007 18.2083 8.67735 18.0415 8.38041 17.7446C8.08348 17.4476 7.91667 17.0449 7.91667 16.625" fill="black" fill-opacity="0.81"/>
    <circle cx="15" cy="3" r="3" fill="#FFD700"/>
</svg>
