<svg xmlns="http://www.w3.org/2000/svg" width="26" height="28" viewBox="0 0 26 28" fill="none">
    <path d="M13 14C11.8083 14 10.7882 13.543 9.93956 12.6291C9.09095 11.7152 8.66665 10.6166 8.66665 9.33329C8.66665 8.04996 9.09095 6.95135 9.93956 6.03746C10.7882 5.12357 11.8083 4.66663 13 4.66663C14.1916 4.66663 15.2118 5.12357 16.0604 6.03746C16.909 6.95135 17.3333 8.04996 17.3333 9.33329C17.3333 10.6166 16.909 11.7152 16.0604 12.6291C15.2118 13.543 14.1916 14 13 14ZM4.33331 23.3333V20.0666C4.33331 19.4055 4.49148 18.7977 4.80781 18.2431C5.12415 17.6886 5.54376 17.2658 6.06665 16.975C7.18609 16.3722 8.32359 15.9199 9.47915 15.6181C10.6347 15.3163 11.8083 15.1658 13 15.1666C14.1916 15.1666 15.3653 15.3175 16.5208 15.6193C17.6764 15.9211 18.8139 16.373 19.9333 16.975C20.4569 17.2666 20.8769 17.6897 21.1932 18.2443C21.5096 18.7988 21.6674 19.4063 21.6666 20.0666V23.3333H4.33331Z" fill="white"/>
</svg>