<svg xmlns="http://www.w3.org/2000/svg" width="14" height="14" viewBox="0 0 14 14" fill="none">
    <path d="M6.99999 1.16667C6.38116 1.16667 5.78766 1.4125 5.35008 1.85009C4.91249 2.28767 4.66666 2.88117 4.66666 3.50001C4.66666 4.11884 4.91249 4.71234 5.35008 5.14992C5.78766 5.58751 6.38116 5.83334 6.99999 5.83334C7.61883 5.83334 8.21233 5.58751 8.64991 5.14992C9.0875 4.71234 9.33333 4.11884 9.33333 3.50001C9.33333 2.88117 9.0875 2.28767 8.64991 1.85009C8.21233 1.4125 7.61883 1.16667 6.99999 1.16667ZM5.83333 3.50001C5.83333 3.19059 5.95624 2.89384 6.17504 2.67505C6.39383 2.45625 6.69058 2.33334 6.99999 2.33334C7.30941 2.33334 7.60616 2.45625 7.82495 2.67505C8.04375 2.89384 8.16666 3.19059 8.16666 3.50001C8.16666 3.80942 8.04375 4.10617 7.82495 4.32496C7.60616 4.54376 7.30941 4.66667 6.99999 4.66667C6.69058 4.66667 6.39383 4.54376 6.17504 4.32496C5.95624 4.10617 5.83333 3.80942 5.83333 3.50001ZM9.91666 7.00001H4.08333C3.6192 7.00001 3.17408 7.18438 2.84589 7.51257C2.5177 7.84076 2.33333 8.28588 2.33333 8.75001C2.33333 10.052 2.86883 11.095 3.74733 11.8008C4.61183 12.495 5.77149 12.8333 6.99999 12.8333C8.22849 12.8333 9.38816 12.495 10.2527 11.8008C11.13 11.095 11.6667 10.052 11.6667 8.75001C11.6667 8.28588 11.4823 7.84076 11.1541 7.51257C10.8259 7.18438 10.3808 7.00001 9.91666 7.00001ZM4.08333 8.16667H9.91666C10.0714 8.16667 10.2197 8.22813 10.3291 8.33753C10.4385 8.44692 10.5 8.5953 10.5 8.75001C10.5 9.70317 10.1208 10.4102 9.52233 10.8908C8.90866 11.3832 8.02666 11.6667 6.99999 11.6667C5.97333 11.6667 5.09133 11.3832 4.47766 10.8908C3.87916 10.4102 3.49999 9.70317 3.49999 8.75001C3.49999 8.5953 3.56145 8.44692 3.67085 8.33753C3.78025 8.22813 3.92862 8.16667 4.08333 8.16667Z" fill="#7F7F7F"/>
</svg>
