<svg xmlns="http://www.w3.org/2000/svg" width="20" height="20" viewBox="0 0 20 20" fill="none">
    <path d="M3.33333 15.0001C3.33333 14.116 3.68452 13.2682 4.30964 12.6431C4.93477 12.0179 5.78261 11.6667 6.66667 11.6667H13.3333C14.2174 11.6667 15.0652 12.0179 15.6904 12.6431C16.3155 13.2682 16.6667 14.116 16.6667 15.0001C16.6667 15.4421 16.4911 15.866 16.1785 16.1786C15.866 16.4912 15.442 16.6667 15 16.6667H5C4.55797 16.6667 4.13405 16.4912 3.82149 16.1786C3.50893 15.866 3.33333 15.4421 3.33333 15.0001Z" stroke="#7F7F7F" stroke-linejoin="round"/>
    <path d="M10 8.33337C11.3807 8.33337 12.5 7.21409 12.5 5.83337C12.5 4.45266 11.3807 3.33337 10 3.33337C8.61929 3.33337 7.5 4.45266 7.5 5.83337C7.5 7.21409 8.61929 8.33337 10 8.33337Z" stroke="#7F7F7F"/>
</svg>