<svg xmlns="http://www.w3.org/2000/svg" width="63" height="51" viewBox="0 0 63 51" fill="none">
    <g clip-path="url(#clip0_1_24)">
        <path d="M44.625 11.9531C44.625 17.3918 36.6297 27.0838 33.1187 31.0781C32.2766 32.0344 30.7125 32.0344 29.8813 31.0781C26.3703 27.0838 18.375 17.3918 18.375 11.9531C18.375 5.34902 24.2484 0 31.5 0C38.7516 0 44.625 5.34902 44.625 11.9531ZM45.5 19.9617C45.8828 19.2744 46.2328 18.5871 46.55 17.9098C46.6047 17.7902 46.6594 17.6607 46.7141 17.5412L59.4016 12.9193C61.1297 12.2918 63 13.4473 63 15.1406V42.1148C63 43.091 62.3438 43.9676 61.3484 44.3361L45.5 50.1035V19.9617ZM15.05 13.776C15.3125 15.1805 15.8375 16.5949 16.45 17.9098C16.7672 18.5871 17.1172 19.2744 17.5 19.9617V45.0035L3.59844 50.0736C1.87031 50.7012 0 49.5457 0 47.8523V20.8781C0 19.902 0.65625 19.0254 1.65156 18.6568L15.0609 13.776H15.05ZM35.8531 33.0703C37.3734 31.3371 39.7578 28.5182 42 25.4004V50.233L21 44.7645V25.4004C23.2422 28.5182 25.6266 31.3371 27.1469 33.0703C29.3891 35.6203 33.6109 35.6203 35.8531 33.0703ZM31.5 15.1406C32.6603 15.1406 33.7731 14.7208 34.5936 13.9736C35.4141 13.2264 35.875 12.213 35.875 11.1563C35.875 10.0995 35.4141 9.08609 34.5936 8.33887C33.7731 7.59166 32.6603 7.17188 31.5 7.17188C30.3397 7.17188 29.2269 7.59166 28.4064 8.33887C27.5859 9.08609 27.125 10.0995 27.125 11.1563C27.125 12.213 27.5859 13.2264 28.4064 13.9736C29.2269 14.7208 30.3397 15.1406 31.5 15.1406Z" fill="#FFD700"/>
    </g>
    <defs>
        <clipPath id="clip0_1_24">
            <rect width="63" height="51" fill="white"/>
        </clipPath>
    </defs>
</svg>
